<svg xmlns="http://www.w3.org/2000/svg" viewBox="0 0 100 100"><defs><linearGradient id="a" x1="16.498%" x2="56.262%" y1="38.528%" y2="63.185%"><stop offset="0%" stop-color="#DCE0EF"/><stop offset="100%" stop-color="#DCDFEA"/></linearGradient><linearGradient id="b" x1="28.893%" x2="93.898%" y1="55.707%" y2="48.876%"><stop offset="0%" stop-color="#F1F3FA"/><stop offset="100%" stop-color="#E8EAF0"/></linearGradient></defs><g fill="none" fill-rule="evenodd"><path d="M0 0h100v100H0z"/><ellipse cx="50" cy="60.8" fill="url(#a)" fill-rule="nonzero" rx="44.4" ry="22.8"/><ellipse cx="50" cy="58.4" fill="url(#b)" fill-rule="nonzero" rx="44.4" ry="22.8"/><path fill="#E0E3EF" fill-rule="nonzero" d="M69.343 42.018c6.904 3.985 10.08 11.235 10.057 19.162-.011 3.963-1.42 6.745-3.683 8.05-2.275 1.284-5.406 1.082-8.853-.9L34.857 50.868C27.953 46.882 22.377 37.22 22.4 29.294c.023-7.927 5.643-11.113 12.547-7.127.89.506 1.746 1.103 2.579 1.79.766-8.096 7.05-11.136 14.675-6.745 7.614 4.392 13.865 14.672 14.574 23.623.823.27 1.69.676 2.568 1.183Z"/><path fill="#FFF" fill-rule="nonzero" d="M42.92 29.682a.81.81 0 0 1 1.263-.671l4.86 3.274a.81.81 0 0 1 .357.672v8.163l-1.129-.715 1.129.761v7.123a.81.81 0 0 1-1.243.684l-4.86-3.076a.81.81 0 0 1-.377-.684v-15.53Z"/><path fill="#F7F8FB" fill-rule="nonzero" d="m53.903 44.13 4.86 3.275a.81.81 0 0 1 .357.672v6.692a.81.81 0 0 1-1.243.684l-4.86-3.076a.81.81 0 0 1-.377-.684v-6.89a.81.81 0 0 1 1.263-.672Z"/></g></svg>