<svg xmlns="http://www.w3.org/2000/svg" viewBox="0 0 16 16"><g fill="none" fill-rule="evenodd"><path fill="currentColor" fill-opacity=".01" fill-rule="nonzero" d="M0 0h16v16H0z"/><path fill="currentColor" stroke="currentColor" stroke-linecap="round" stroke-linejoin="round" d="M6.333 6.667a2.333 2.333 0 1 0 0-4.667 2.333 2.333 0 0 0 0 4.667Z"/><path stroke="currentColor" stroke-linecap="round" stroke-linejoin="round" d="M10.87 2.333a2.332 2.332 0 0 1 0 4"/><path fill="currentColor" stroke="currentColor" stroke-linecap="round" stroke-linejoin="round" d="M1.333 13.6v.4h10v-.4c0-1.493 0-2.24-.29-2.81a2.667 2.667 0 0 0-1.166-1.166c-.57-.29-1.317-.29-2.81-.29H5.6c-1.493 0-2.24 0-2.81.29-.502.256-.91.664-1.166 1.165-.29.57-.29 1.318-.29 2.811Z"/><path stroke="currentColor" stroke-linecap="round" stroke-linejoin="round" d="M14.667 14v-.4c0-1.493 0-2.24-.291-2.81a2.667 2.667 0 0 0-1.165-1.166"/></g></svg>