<svg xmlns="http://www.w3.org/2000/svg" xmlns:xlink="http://www.w3.org/1999/xlink" width="32" height="32"><defs><linearGradient id="c" x1="100%" x2="0%" y1="101.089%" y2="-14.125%"><stop offset="0%" stop-color="#FFF"/><stop offset="46.533%" stop-color="#FFF8F8"/><stop offset="100%" stop-color="#DDFEEB"/></linearGradient><linearGradient id="f" x1="100%" x2="0%" y1="51.269%" y2="48.407%"><stop offset="0%" stop-color="#FFF"/><stop offset="46.533%" stop-color="#FFF8F8"/><stop offset="100%" stop-color="#DDFEEB"/></linearGradient><filter id="a" width="148.6%" height="153.6%" x="-24.3%" y="-19.2%" filterUnits="objectBoundingBox"><feOffset dy="1" in="SourceAlpha" result="shadowOffsetOuter1"/><feGaussianBlur in="shadowOffsetOuter1" result="shadowBlurOuter1" stdDeviation="1"/><feColorMatrix in="shadowBlurOuter1" values="0 0 0 0 0.179423161 0 0 0 0 0.342133642 0 0 0 0 0.637515745 0 0 0 0.650991587 0"/></filter><filter id="d" width="150%" height="450%" x="-25%" y="-125%" filterUnits="objectBoundingBox"><feOffset dy="1" in="SourceAlpha" result="shadowOffsetOuter1"/><feGaussianBlur in="shadowOffsetOuter1" result="shadowBlurOuter1" stdDeviation="1"/><feColorMatrix in="shadowBlurOuter1" values="0 0 0 0 0.179423161 0 0 0 0 0.342133642 0 0 0 0 0.637515745 0 0 0 0.650991587 0"/></filter><rect id="e" width="14" height="2" x="0" y="0" rx="1"/><path id="b" d="M15.962 12.004c.157.01.312.056.452.139l.101.07.095.082L23 18.322a1 1 0 0 1-1.32 1.498l-.094-.083-4.61-4.315.001 8.788c0 .466-.447.843-1 .843-.512 0-.935-.325-.993-.745l-.007-.098v-8.866l-4.372 4.393a1 1 0 0 1-1.497-1.32l.083-.095 6.004-6.027a.996.996 0 0 1 .648-.29h.119Z"/></defs><g fill="none" fill-rule="evenodd"><rect width="32" height="32" fill="#2468F2" rx="16"/><g fill-rule="nonzero"><use fill="#000" filter="url(#a)" xlink:href="#b"/><use fill="url(#c)" xlink:href="#b"/></g><g fill-rule="nonzero" transform="translate(9 7.702)"><use fill="#000" filter="url(#d)" xlink:href="#e"/><use fill="url(#f)" xlink:href="#e"/></g></g></svg>