<svg xmlns="http://www.w3.org/2000/svg" viewBox="0 0 18 18"><rect width="6.913" height="1" x="7.116" y="2.951" fill="currentColor" rx=".5"/><rect width="5.188" height="1" x="7.116" y="5.989" fill="currentColor" rx=".5"/><rect width="6.913" height="1" x="7.116" y="9.028" fill="currentColor" rx=".5"/><rect width="5.188" height="1" x="7.116" y="12.066" fill="currentColor" rx=".5"/><path fill="none" stroke="currentColor" stroke-linecap="round" stroke-linejoin="bevel" d="M4.284 2.5v1.488m0 2.742v2.144m0 3.065V13.5"/><path fill="none" stroke="currentColor" stroke-linejoin="round" d="M4.25 9.195a1.336 1.336 0 1 1 0 2.671 1.336 1.336 0 0 1 0-2.671Zm0-5.153a1.336 1.336 0 1 1 0 2.672 1.336 1.336 0 0 1 0-2.672Z"/></svg>